# xmcd
#
# Track frame offsets: 
#        150
#        31725
#        45365
#        61105
#        78558
#        91758
#        112885
#        126148
#        138612
#        155072
#        168877
#        181054
#        192914
#        206660
#        230545
#
# Disc length: 3310 seconds
#
# Revision: 2
# Processed by: cddbd v1.5.2PL0 Copyright (c) Steve Scherf et al.
# Submitted via: ExactAudioCopy v0.99pb3
#
DISCID=ba0cec0f
DTITLE=West Songer - Countryderry No.2 [Dban]
DYEAR=2001
DGENRE=Country
TTITLE0=Hotel California
TTITLE1=A Rose From Another Graden
TTITLE2=Jayney
TTITLE3=If Never Rains In South Em California
TTITLE4=Top Of The World
TTITLE5=Bachata Blues
TTITLE6=Tennesee Waltz
TTITLE7=Love Me Tender
TTITLE8=A Good Place To Be
TTITLE9=My Heroes Hue Always Been Cowboys
TTITLE10=Sealed With A Kiss
TTITLE11=Rhythm Of The Rain
TTITLE12=Green Sleeves
TTITLE13=Still Reelin
TTITLE14=Tomare
EXTD=YEAR: 2001 ID3G: 2
EXTT0=
EXTT1=
EXTT2=
EXTT3=
EXTT4=
EXTT5=
EXTT6=
EXTT7=
EXTT8=
EXTT9=
EXTT10=
EXTT11=
EXTT12=
EXTT13=
EXTT14=
PLAYORDER=
